<svg xmlns="http://www.w3.org/2000/svg" viewBox="14 -1475 15504 2014"><g fill="#3A1F5A"><path d="M55 -844.0Q180 -926.0 303 -926.0Q428 -926.0 504 -850.0Q551 -802.0 578 -720.0Q604 -638.0 608 -542.0Q610 -491.0 611 -445.0Q611 -402.0 609 -364.0Q605 -282.0 594 -199.0Q682 -264.0 762 -340.0Q765 -343.0 770.0 -349.0Q775 -355.0 778 -358.0Q779 -395.0 779 -430.0Q779 -594.0 756 -715.0Q730 -868.0 664 -868.0Q641 -868.0 575 -827.0L565 -844.0Q690 -926.0 813 -926.0Q939 -926.0 1012 -850.0Q1060 -802.0 1087 -720.0Q1114 -638.0 1118 -542.0Q1120 -491.0 1121 -445.0Q1121 -402.0 1119 -364.0Q1115 -282.0 1104 -199.0Q1196 -266.0 1270 -340.0Q1461 -528.0 1501 -707.0Q1482 -676.0 1450.0 -657.5Q1418 -639.0 1380 -639.0Q1322 -639.0 1279.5 -681.5Q1237 -724.0 1237 -782.0Q1237 -842.0 1279.0 -884.0Q1321 -926.0 1380 -926.0Q1438 -926.0 1484.0 -884.0Q1530 -842.0 1530 -774.0Q1530 -642.0 1417.0 -481.0Q1304 -320.0 1120.5 -185.0Q937 -50.0 743 10.0L737 -8.0Q767 -146.0 778 -328.0Q664 -215.0 521.5 -125.0Q379 -35.0 233 10.0L227 -8.0Q266 -190.0 270 -390.0Q271 -420.0 270 -447.0Q270 -608.0 248 -715.0Q234 -787.0 213.0 -827.5Q192 -868.0 154 -868.0Q125 -868.0 68 -827.0Z"/><path d="M1525 -258.0Q1525 -366.0 1594.5 -486.5Q1664 -607.0 1772.0 -703.0Q1880 -799.0 2021.5 -862.5Q2163 -926.0 2297 -926.0Q2447 -926.0 2533.0 -852.5Q2619 -779.0 2619 -657.0Q2619 -603.0 2592 -520.0H1971Q1911 -407.0 1862.5 -283.5Q1814 -160.0 1814 -78.0Q1814 -10.0 1861 -10.0Q1938 -10.0 2041.5 -43.5Q2145 -77.0 2246 -143.0Q2316 -188.0 2385 -254.0L2399 -240.0Q2279 -127.0 2130.5 -58.5Q1982 10.0 1844 10.0Q1694 10.0 1609.5 -63.5Q1525 -137.0 1525 -258.0ZM1982 -541.0H2244Q2328 -732.0 2328 -838.0Q2328 -905.0 2287 -905.0Q2237 -905.0 2153.0 -803.0Q2069 -701.0 1982 -541.0Z"/><path d="M2823 498.0 3436 -770.0Q3460 -817.0 3460 -848.0Q3460 -877.0 3436 -877.0Q3423 -877.0 3386.0 -858.0Q3349 -839.0 3333 -827.0L3321 -844.0Q3446 -926.0 3569 -926.0Q3669 -926.0 3720 -872.0Q3764 -827.0 3764 -758.0Q3764 -746.0 3763 -733.0Q3824 -825.0 3893.0 -874.5Q3962 -924.0 4054 -924.0Q4167 -924.0 4245.5 -850.0Q4324 -776.0 4324 -657.0Q4324 -547.0 4251.5 -425.0Q4179 -303.0 4072.5 -208.5Q3966 -114.0 3838.0 -52.0Q3710 10.0 3604 10.0Q3484 10.0 3477 -109.0L3184 498.0ZM3499 -156.0Q3496 -135.0 3496 -118.0Q3496 -78.0 3511 -53.0Q3533 -16.0 3567 -16.0Q3632 -16.0 3745.5 -175.5Q3859 -335.0 3946.5 -531.0Q4034 -727.0 4034 -827.0Q4034 -893.0 3993 -893.0Q3936 -893.0 3862.5 -823.0Q3789 -753.0 3735 -643.0Q3733 -638.0 3706 -584.0Z"/><path d="M4353 -156.0Q4353 -168.0 4354.5 -180.5Q4356 -193.0 4357.5 -202.5Q4359 -212.0 4363.5 -225.5Q4368 -239.0 4370.5 -246.5Q4373 -254.0 4379.5 -269.0Q4386 -284.0 4388.5 -289.5Q4391 -295.0 4399.5 -312.0Q4408 -329.0 4410 -334.0L4621 -770.0Q4624 -776.0 4627.5 -783.5Q4631 -791.0 4636.0 -804.5Q4641 -818.0 4643.0 -829.5Q4645 -841.0 4645.5 -852.5Q4646 -864.0 4639.5 -870.5Q4633 -877.0 4621 -877.0Q4594 -877.0 4519 -827.0L4507 -844.0Q4636 -926.0 4754 -926.0Q4846 -926.0 4898.5 -880.5Q4951 -835.0 4952 -760.0Q4952 -709.0 4922 -643.0L4681 -147.0Q4658 -94.0 4658 -70.0Q4658 -39.0 4683 -39.0Q4696 -39.0 4732.0 -58.5Q4768 -78.0 4789 -92.0Q4887 -154.0 4952 -254.0L4967 -244.0Q4900 -136.0 4781.5 -63.0Q4663 10.0 4550 10.0Q4458 10.0 4405.5 -35.5Q4353 -81.0 4353 -156.0ZM4937 -1374.0Q4996 -1374.0 5038.0 -1332.5Q5080 -1291.0 5080.0 -1231.0Q5080 -1171.0 5038.0 -1129.0Q4996 -1087.0 4937 -1087.0Q4877 -1087.0 4835.0 -1129.0Q4793 -1171.0 4793.0 -1231.0Q4793 -1291.0 4835.0 -1332.5Q4877 -1374.0 4937 -1374.0Z"/><path d="M5034 -258.0Q5034 -330.0 5065.5 -409.0Q5097 -488.0 5151.5 -561.5Q5206 -635.0 5281.5 -702.0Q5357 -769.0 5441.0 -818.0Q5525 -867.0 5620.5 -896.5Q5716 -926.0 5806 -926.0Q5951 -926.0 6035.0 -859.5Q6119 -793.0 6119 -702.0Q6119 -642.0 6077.5 -600.5Q6036 -559.0 5976 -559.0Q5917 -559.0 5875.0 -600.5Q5833 -642.0 5833 -702.0Q5833 -761.0 5875.5 -803.5Q5918 -846.0 5976 -846.0Q6010 -846.0 6037 -831.0Q5955 -905.0 5806 -905.0Q5759 -905.0 5702 -848.0Q5626 -771.0 5537.0 -623.0Q5448 -475.0 5385.5 -320.0Q5323 -165.0 5323 -78.0Q5323 -10.0 5370 -10.0Q5448 -10.0 5551.0 -43.5Q5654 -77.0 5755 -143.0Q5825 -188.0 5894 -254.0L5908 -240.0Q5788 -127.0 5639.5 -58.5Q5491 10.0 5353 10.0Q5205 10.0 5119.5 -64.0Q5034 -138.0 5034 -258.0Z"/><path d="M6068 -156.0Q6068 -168.0 6069.5 -180.5Q6071 -193.0 6072.5 -202.5Q6074 -212.0 6078.5 -225.5Q6083 -239.0 6085.5 -246.5Q6088 -254.0 6094.5 -269.0Q6101 -284.0 6103.5 -289.5Q6106 -295.0 6114.5 -312.0Q6123 -329.0 6125 -334.0L6582 -1276.0Q6607 -1327.0 6607 -1354.0Q6607 -1384.0 6582 -1384.0Q6558 -1384.0 6480 -1335.0L6467 -1352.0Q6592 -1434.0 6715 -1434.0Q6806 -1434.0 6859.0 -1388.0Q6912 -1342.0 6912 -1266.0Q6912 -1216.0 6881 -1149.0L6621 -608.0Q6674 -672.0 6709 -707.0Q6815 -813.0 6913.5 -869.5Q7012 -926.0 7090 -926.0Q7170 -926.0 7224.0 -879.5Q7278 -833.0 7278 -764.0Q7278 -706.0 7235.5 -663.5Q7193 -621.0 7135 -621.0Q7075 -621.0 7033.5 -663.0Q6992 -705.0 6992 -764.0Q6992 -816.0 7024.0 -855.0Q7056 -894.0 7106 -905.0Q7098 -906.0 7091 -906.0Q7027 -906.0 6955 -868.0Q6814 -799.0 6656 -618.0Q6731 -651.0 6813 -651.0Q6904 -651.0 6956.0 -605.0Q7008 -559.0 7008 -483.0Q7008 -429.0 6979 -367.0Q6939 -287.0 6873 -147.0Q6848 -96.0 6848 -70.0Q6848 -39.0 6873 -39.0Q6894 -39.0 6981 -92.0Q7083 -159.0 7141 -254.0L7160 -244.0Q7092 -135.0 6973.0 -62.5Q6854 10.0 6740 10.0Q6649 10.0 6597.0 -35.5Q6545 -81.0 6543 -156.0Q6543 -172.0 6545.5 -188.5Q6548 -205.0 6551.0 -217.0Q6554 -229.0 6562.0 -247.5Q6570 -266.0 6573.5 -274.5Q6577 -283.0 6588.0 -305.0Q6599 -327.0 6602 -334.0Q6665 -465.0 6668 -473.0Q6680 -497.0 6680 -516.0Q6680 -544.0 6661.5 -560.0Q6643 -576.0 6617 -573.0Q6594 -542.0 6580 -526.0L6402 -156.0Q6387 -125.0 6378.0 -105.0Q6369 -85.0 6363.0 -65.0Q6357 -45.0 6358.0 -30.5Q6359 -16.0 6365 -4.0Q6316 10.0 6265 10.0Q6173 10.0 6120.5 -35.5Q6068 -81.0 6068 -156.0Z"/><path d="M7796 281.0Q7796 150.0 7975 -8.0Q8015 -188.0 8019 -389.0Q8019 -414.0 8019 -438.0Q8019 -606.0 7995 -715.0Q7981 -787.0 7960.0 -827.5Q7939 -868.0 7903 -868.0Q7881 -868.0 7815 -827.0L7805 -844.0Q7930 -926.0 8052 -926.0Q8170 -926.0 8245 -848.0Q8354 -739.0 8354 -457.0Q8354 -376.0 8345 -281.0Q8511 -399.0 8611.5 -499.0Q8712 -599.0 8740 -705.0Q8694 -639.0 8620 -639.0Q8561 -639.0 8518.5 -681.5Q8476 -724.0 8476 -782.0Q8476 -842.0 8518.5 -884.0Q8561 -926.0 8620 -926.0Q8678 -926.0 8723.5 -884.0Q8769 -842.0 8769 -774.0Q8769 -738.0 8759.0 -701.0Q8749 -664.0 8734.5 -632.0Q8720 -600.0 8692.0 -563.5Q8664 -527.0 8640.5 -499.5Q8617 -472.0 8575.0 -435.5Q8533 -399.0 8504.5 -375.0Q8476 -351.0 8425.0 -313.5Q8374 -276.0 8345.0 -255.5Q8316 -235.0 8261 -197.0Q8037 -40.0 7952 41.0Q7817 170.0 7817 281.0Q7817 365.0 7867.5 420.0Q7918 475.0 7999 475.0Q8063 475.0 8122 440.0Q8109 442.0 8096 442.0Q8045 442.0 8004 408.0Q7952 365.0 7952 299.0Q7952 239.0 7994.0 197.5Q8036 156.0 8095 156.0Q8155 156.0 8197.0 197.5Q8239 239.0 8239 299.0Q8239 379.0 8160.5 437.5Q8082 496.0 7999 496.0Q7911 496.0 7853.5 434.5Q7796 373.0 7796 281.0Z"/><path d="M8763 -258.0Q8763 -330.0 8794.5 -409.0Q8826 -488.0 8880.5 -561.5Q8935 -635.0 9010.5 -702.0Q9086 -769.0 9170.0 -818.0Q9254 -867.0 9349.5 -896.5Q9445 -926.0 9535 -926.0Q9685 -926.0 9771.0 -852.5Q9857 -779.0 9857 -657.0Q9857 -550.0 9787.5 -430.5Q9718 -311.0 9610.0 -214.0Q9502 -117.0 9359.5 -53.5Q9217 10.0 9082 10.0Q8933 10.0 8848.0 -63.0Q8763 -136.0 8763 -258.0ZM9052 -78.0Q9052 -10.0 9093 -10.0Q9157 -10.0 9272.0 -170.0Q9387 -330.0 9477.0 -530.5Q9567 -731.0 9568 -838.0Q9568 -905.0 9525 -905.0Q9477 -905.0 9395.0 -806.5Q9313 -708.0 9238.0 -575.5Q9163 -443.0 9107.5 -300.5Q9052 -158.0 9052 -78.0Z"/><path d="M9897 -135.0Q9897 -151.0 9900.5 -170.0Q9904 -189.0 9908.0 -202.5Q9912 -216.0 9921.0 -238.0Q9930 -260.0 9934.0 -269.5Q9938 -279.0 9950.0 -303.5Q9962 -328.0 9965 -334.0L10175 -770.0Q10198 -820.0 10198 -848.0Q10198 -877.0 10173 -877.0Q10161 -877.0 10125.5 -858.5Q10090 -840.0 10071 -827.0L10061 -844.0Q10186 -926.0 10309 -926.0Q10400 -926.0 10451.5 -880.5Q10503 -835.0 10503 -760.0Q10503 -702.0 10474 -643.0L10231 -137.0Q10210 -94.0 10210 -68.0Q10210 -39.0 10233 -39.0Q10265 -39.0 10346.0 -106.0Q10427 -173.0 10487 -279.0Q10499 -306.0 10513 -334.0L10718 -760.0Q10748 -820.0 10756.5 -851.0Q10765 -882.0 10755 -911.0Q10808 -926.0 10855 -926.0Q10947 -926.0 10999.5 -880.5Q11052 -835.0 11052 -760.0Q11052 -729.0 11041.5 -694.0Q11031 -659.0 11024.5 -644.5Q11018 -630.0 10995 -584.0L10784 -147.0Q10759 -96.0 10759 -70.0Q10759 -39.0 10784 -39.0Q10797 -39.0 10833.0 -58.5Q10869 -78.0 10890 -92.0Q10988 -154.0 11052 -254.0L11068 -244.0Q11001 -136.0 10882.5 -63.0Q10764 10.0 10651 10.0Q10546 10.0 10493 -49.0Q10453 -93.0 10453 -154.0Q10453 -175.0 10458 -197.0Q10386 -99.0 10294.5 -44.5Q10203 10.0 10104 10.0Q10019 10.0 9958.0 -30.0Q9897 -70.0 9897 -135.0Z"/><path d="M11150 -156.0Q11150 -168.0 11151.5 -180.5Q11153 -193.0 11154.5 -202.5Q11156 -212.0 11160.5 -225.5Q11165 -239.0 11167.5 -246.5Q11170 -254.0 11176.5 -269.0Q11183 -284.0 11185.5 -289.5Q11188 -295.0 11196.5 -312.0Q11205 -329.0 11207 -334.0L11418 -770.0Q11421 -776.0 11424.5 -783.5Q11428 -791.0 11433.0 -804.5Q11438 -818.0 11440.0 -829.5Q11442 -841.0 11442.5 -852.5Q11443 -864.0 11436.5 -870.5Q11430 -877.0 11418 -877.0Q11391 -877.0 11316 -827.0L11304 -844.0Q11429 -926.0 11551 -926.0Q11653 -926.0 11705 -870.0Q11748 -824.0 11749 -760.0Q11749 -745.0 11746 -729.0Q11793 -801.0 11826 -836.0Q11920 -940.0 12014 -940.0Q12074 -940.0 12119.0 -892.5Q12164 -845.0 12164 -782.0Q12164 -723.0 12122.0 -681.0Q12080 -639.0 12020.0 -639.0Q11960 -639.0 11918.5 -681.0Q11877 -723.0 11877 -782.0Q11877 -856.0 11934 -897.0Q11830 -844.0 11717 -643.0L11484 -156.0Q11469 -125.0 11460.0 -105.0Q11451 -85.0 11445.0 -65.0Q11439 -45.0 11440.0 -30.5Q11441 -16.0 11447 -4.0Q11398 10.0 11347 10.0Q11255 10.0 11202.5 -35.5Q11150 -81.0 11150 -156.0Z"/><path d="M12604 -336.0Q12604 -412.0 12657.5 -466.0Q12711 -520.0 12788.0 -520.0Q12865 -520.0 12919.0 -466.0Q12973 -412.0 12973.0 -336.0Q12973 -260.0 12919.0 -206.0Q12865 -152.0 12788 -152.0Q12712 -152.0 12659 -205.0Q12728 -67.0 12915 -33.0Q13005 -41.0 13096.0 -121.5Q13187 -202.0 13244.5 -319.5Q13302 -437.0 13302 -547.0Q13302 -639.0 13258.5 -699.0Q13215 -759.0 13138 -760.0Q13014 -727.0 12954 -694.0L12942 -715.0Q13007 -750.0 13225 -811.0Q13417 -862.0 13559.5 -915.0Q13702 -968.0 13818 -1049.0Q13713 -989.0 13614 -989.0Q13557 -989.0 13489.0 -1005.5Q13421 -1022.0 13369.5 -1042.5Q13318 -1063.0 13260.0 -1079.5Q13202 -1096.0 13161 -1096.0Q13041 -1096.0 12983 -977.0V-979.0L12942 -895.0H12915L13175 -1434.0H13202L13069 -1155.0Q13094 -1206.0 13125.5 -1250.5Q13157 -1295.0 13201.5 -1339.0Q13246 -1383.0 13305.5 -1408.5Q13365 -1434.0 13431 -1434.0Q13498 -1434.0 13593.5 -1406.0Q13689 -1378.0 13776.0 -1349.5Q13863 -1321.0 13909 -1321.0Q13972 -1321.0 14019.0 -1354.5Q14066 -1388.0 14074 -1434.0H14099Q14087 -1365.0 14060.5 -1303.0Q14034 -1241.0 14001.0 -1192.5Q13968 -1144.0 13918.5 -1099.0Q13869 -1054.0 13823.5 -1021.5Q13778 -989.0 13713.0 -956.5Q13648 -924.0 13598.5 -903.5Q13549 -883.0 13476.5 -859.5Q13404 -836.0 13358.5 -823.0Q13313 -810.0 13243 -791.0Q13361 -804.0 13457.0 -784.5Q13553 -765.0 13612.0 -722.5Q13671 -680.0 13702.5 -624.0Q13734 -568.0 13734 -504.0Q13734 -382.0 13631.5 -264.5Q13529 -147.0 13363.0 -73.5Q13197 0.0 13022 0.0Q12920 0.0 12838.5 -27.5Q12757 -55.0 12707.0 -101.5Q12657 -148.0 12630.5 -208.0Q12604 -268.0 12604 -336.0Z"/><path d="M13914 -408.0Q13914 -526.0 13961.5 -651.5Q14009 -777.0 14090.0 -889.0Q14171 -1001.0 14282.5 -1102.0Q14394 -1203.0 14517.0 -1276.0Q14640 -1349.0 14776.5 -1391.5Q14913 -1434.0 15040 -1434.0Q15243 -1434.0 15360.0 -1321.0Q15477 -1208.0 15477 -1024.0Q15477 -907.0 15429.0 -781.5Q15381 -656.0 15300.0 -544.5Q15219 -433.0 15107.5 -332.0Q14996 -231.0 14872.5 -158.0Q14749 -85.0 14612.0 -42.5Q14475 0.0 14348 0.0Q14147 0.0 14030.5 -112.0Q13914 -224.0 13914 -408.0ZM14260 -180.0Q14260 -25.0 14348 -25.0Q14426 -25.0 14518.5 -90.5Q14611 -156.0 14696.0 -261.0Q14781 -366.0 14861.0 -500.0Q14941 -634.0 15000.0 -769.5Q15059 -905.0 15094.5 -1033.5Q15130 -1162.0 15130 -1253.0Q15130 -1409.0 15040 -1409.0Q14962 -1409.0 14870.0 -1343.5Q14778 -1278.0 14693.5 -1173.0Q14609 -1068.0 14529.0 -933.5Q14449 -799.0 14390.0 -663.5Q14331 -528.0 14295.5 -399.5Q14260 -271.0 14260 -180.0Z"/></g></svg>